<svg height="192" viewBox="0 0 192 192" width="192" xmlns="http://www.w3.org/2000/svg" xmlns:xlink="http://www.w3.org/1999/xlink"><defs><rect id="a" height="152" rx="12" width="152"/><radialGradient id="b" cx="14.94%" cy="13.64%" r="100.42%"><stop offset="0" stop-color="#fff" stop-opacity=".12"/><stop offset="1" stop-color="#fff" stop-opacity="0"/></radialGradient><radialGradient id="c" cx="-.17%" cy=".1%" r="136.32%"><stop offset="0" stop-color="#1a237e" stop-opacity=".2"/><stop offset="1" stop-color="#1a237e" stop-opacity="0"/></radialGradient><radialGradient id="d" cx="85.08%" cy="13.4%" r="153.65%"><stop offset="0" stop-color="#1a237e" stop-opacity=".12"/><stop offset="1" stop-color="#1a237e" stop-opacity="0"/></radialGradient><radialGradient id="e" cx="41.34%" cy="0%" r="56.54%"><stop offset="0" stop-color="#1a237e" stop-opacity=".15"/><stop offset="1" stop-color="#1a237e" stop-opacity="0"/></radialGradient><path id="f" d="m76 136c33.14 0 60-26.86 60-60s-26.86-60-60-60-60 26.86-60 60 26.86 60 60 60z"/><mask id="g" fill="#fff" height="120" width="120" x="0" y="0"><use xlink:href="#f"/></mask><circle id="h" cx="76" cy="76" r="28"/><mask id="i" fill="#fff" height="56" width="56" x="0" y="0"><use xlink:href="#h"/></mask><circle id="j" cx="76" cy="76" r="20"/><mask id="k" fill="#fff" height="40" width="40" x="0" y="0"><use xlink:href="#j"/></mask><mask id="l" fill="#fff"><use fill="#fff" fill-rule="evenodd" xlink:href="#a"/></mask></defs><g fill="none" fill-rule="evenodd" transform="translate(20 20)"><use fill="#2879ff" xlink:href="#a"/><g mask="url(#l)" stroke="#fff" stroke-opacity=".2" stroke-width=".5" transform="translate(-20 -20)"><path d="m0 0 192 192m0-192-192 192m123.75-192v192m-55.5-192v192m123.75-68.25h-192m192-55.5h-192"/><circle cx="96" cy="96" r="39"/><path d="m0 96h192m-96-96v192"/></g><circle cx="76" cy="76" fill="url(#b)" r="60"/><path d="m140 0h-128c-6.6 0-12 5.4-12 12v1c0-6.6 5.4-12 12-12h128c6.6 0 12 5.4 12 12v-1c0-6.6-5.4-12-12-12z" fill="#fff" opacity=".2"/><path d="m140 151h-128c-6.6 0-12-5.4-12-12v1c0 6.6 5.4 12 12 12h128c6.6 0 12-5.4 12-12v-1c0 6.6-5.4 12-12 12z" fill="#000" opacity=".1"/><path d="m49.5 67.48-24.5-24.48 26.72 45.83c-2.2-3.94-3.44-8.47-3.44-13.3 0-2.8.42-5.5 1.2-8.05z" fill="url(#c)"/><path d="m81.97 103-8.97 33.46 26.56-46.46c-3.75 6.48-10.08 11.28-17.6 13z" fill="url(#d)"/><path d="m96.1 57.43 33.42-8.93h-53.66c-15.12 0-27.37 12.25-27.37 27.37s12.25 27.37 27.37 27.37 27.37-12.25 27.37-27.37c0-7.1-2.7-13.57-7.14-18.44z" fill="url(#e)"/><g stroke="#fff" stroke-width="4"><use mask="url(#g)" xlink:href="#f"/><use mask="url(#i)" xlink:href="#h"/><use mask="url(#k)" xlink:href="#j"/></g><path d="m76 48h53v2h-53zm24.25 42-26.5 45.9-1.73-1 26.5-45.9zm-48.5 0-26.5-45.9 1.73-1 26.5 45.9z" fill="#fff"/></g></svg>